# xmcd
# 
# Track frame offsets:
#     150
#     19992
#     38078
#     55754
#     74436
#     94337
#     116436
#     137098
#     160168
#     179066
#     202641
#     229384
#     254475
#     282428
# 
# Disc length: 4125
# 
# Revision: 0
# Processed by: cddbd v1.5.2PL0 Copyright (c) Steve Scherf et al.
# Submitted via: fre:ac v1.0.31
# 
DISCID=cc101b0e
DTITLE=Rohff - La fierté des nôtres ( CD1)
DYEAR=2004
DGENRE=
TTITLE0=Fils A Pap
TTITLE1=T'es Pas Comme Moi
TTITLE2=Bling Bling (Feat. Amiral T)
TTITLE3=Apparences Trompeuses
TTITLE4=Sincere
TTITLE5=Toujours Ton Enfant
TTITLE6=Fiston (Feat. J-Mi Sissoko)
TTITLE7=Pervertie
TTITLE8=Hollywood Style
TTITLE9=Zone International (Feat. Roldan G and Riviero)
TTITLE10=94
TTITLE11=Le Mot D'ordre
TTITLE12=Code 187 (Feat. Kamelancien, Alibi Montana and Sefyu)
TTITLE13=Outro - J'rappe Mieux Que Toi
EXTD=
EXTT0=
EXTT1=
EXTT2=
EXTT3=
EXTT4=
EXTT5=
EXTT6=
EXTT7=
EXTT8=
EXTT9=
EXTT10=
EXTT11=
EXTT12=
EXTT13=
PLAYORDER=
